<svg width="512" height="512" xmlns="http://www.w3.org/2000/svg" preserveAspectRatio="xMidYMid meet">

 <g>
  <title>background</title>
  <rect fill="none" id="canvas_background" height="402" width="582" y="-1" x="-1"/>
 </g>
 <g>
  <title>Layer 1</title>
  <g id="svg_1" fill="white" transform="translate(0,512) scale(0.10000000149011612,-0.10000000149011612) ">
   <path id="svg_2" d="m237,4696c-110,-46 -182,-123 -217,-235c-20,-62 -20,-90 -20,-1900c0,-1649 2,-1843 16,-1892c33,-114 119,-207 229,-248l56,-21l2259,0c2247,0 2260,0 2314,20c111,42 190,125 226,239c20,62 20,90 20,1901c0,1811 0,1839 -20,1901c-36,114 -115,197 -226,239c-54,20 -67,20 -2317,20l-2262,0l-58,-24zm4634,-161c27,-19 54,-50 71,-84l28,-53l0,-254l0,-254l-1909,0c-1850,0 -1909,-1 -1932,-19c-32,-26 -32,-86 0,-112c23,-18 82,-19 1932,-19l1909,0l0,-1509l0,-1509l-28,-53c-17,-34 -44,-65 -71,-84l-43,-30l-2268,0l-2268,0l-43,30c-27,19 -54,50 -71,84l-28,53l0,1509l0,1509l349,0c337,0 349,1 375,21c36,28 36,80 0,108c-26,20 -38,21 -375,21l-349,0l0,250c0,269 3,288 55,356c13,17 43,41 67,53l43,21l2257,-2l2256,-3l43,-30z"/>
   <path id="svg_3" d="m630,4303c-32,-12 -50,-37 -50,-70c0,-93 139,-99 142,-5c2,49 -50,90 -92,75z"/>
   <path id="svg_4" d="m973,4300c-45,-18 -57,-81 -23,-118c30,-32 82,-30 109,4c12,15 21,33 21,40c0,26 -23,62 -47,73c-28,13 -30,13 -60,1z"/>
   <path id="svg_5" d="m1325,4298c-49,-26 -58,-69 -24,-112c51,-65 153,0 123,79c-6,15 -54,45 -71,45c-4,0 -17,-6 -28,-12z"/>
   <path id="svg_6" d="m4073,4300c-45,-18 -55,-72 -22,-114l20,-26l254,0l254,0l20,26c34,43 26,86 -20,109c-22,12 -75,15 -256,14c-125,0 -238,-4 -250,-9z"/>
   <path id="svg_7" d="m2325,3484c-187,-33 -396,-119 -554,-227c-101,-70 -239,-203 -312,-301l-60,-81l-302,-5c-293,-5 -303,-6 -347,-29c-61,-32 -97,-67 -128,-126l-27,-50l-3,-524c-3,-591 -4,-582 71,-667c23,-26 63,-57 92,-70c49,-23 57,-24 345,-24l295,-1l55,-76c195,-271 522,-475 865,-539c131,-25 363,-25 490,-1c359,70 694,283 882,564l35,52l317,3l316,3l46,27c56,33 94,76 123,138c19,41 21,63 21,243c0,197 0,199 -24,218c-28,23 -68,24 -96,3c-18,-14 -20,-30 -25,-207c-4,-167 -7,-196 -24,-220c-41,-61 85,-57 -1814,-57l-1739,0l-27,21c-57,45 -56,35 -56,571c0,552 -1,545 70,581c33,16 134,17 1772,15l1736,-3l27,-25c48,-44 55,-75 55,-250c0,-147 2,-162 20,-180c30,-30 83,-27 110,7c21,27 22,36 18,208c-4,196 -10,222 -67,294c-16,20 -53,50 -83,67l-53,29l-312,5l-312,5l-60,81c-203,273 -535,474 -873,529c-116,19 -354,18 -463,-1zm155,-379l0,-235l-215,0c-140,0 -215,4 -215,10c0,18 71,152 113,215c56,83 151,174 222,212c101,55 95,68 95,-202zm253,203c112,-59 221,-187 306,-355c17,-34 31,-67 31,-73c0,-6 -74,-10 -215,-10l-215,0l0,235c0,269 -6,256 93,203zm-650,-70c-41,-45 -118,-174 -159,-268l-42,-95l-152,-3l-152,-3l52,61c101,117 226,214 368,287c93,48 115,54 85,21zm1057,-30c135,-72 252,-164 350,-278l52,-61l-152,3l-153,3l-33,78c-39,90 -99,196 -150,262c-32,43 -33,46 -12,40c13,-4 57,-25 98,-47zm-1253,-1845c24,-68 109,-232 156,-300l56,-82l-56,25c-127,56 -259,151 -371,269c-45,46 -82,89 -82,95c0,6 53,10 145,10c130,0 146,-2 152,-17zm593,-223l0,-239l-42,15c-91,32 -201,126 -275,234c-34,50 -113,204 -113,220c0,6 75,10 215,10l215,0l0,-240zm590,230c0,-16 -79,-170 -113,-220c-74,-108 -184,-202 -275,-234l-42,-15l0,239l0,240l215,0c140,0 215,-4 215,-10zm460,-2c0,-7 -51,-62 -113,-123c-115,-111 -223,-188 -339,-239l-57,-25l56,82c47,68 132,232 156,300c6,15 22,17 152,17c106,0 145,-3 145,-12z"/>
   <path id="svg_8" d="m1165,2418c-28,-15 -45,-38 -45,-62c0,-37 169,-511 187,-523c25,-19 77,-16 96,5c9,10 37,76 63,147c25,72 48,131 49,133c1,1 23,-57 49,-130c26,-73 54,-141 63,-150c19,-21 72,-24 96,-5c18,13 187,484 187,521c0,31 -28,64 -60,71c-47,11 -73,-23 -120,-157c-24,-68 -46,-126 -49,-130c-4,-4 -26,50 -50,120c-48,138 -70,172 -112,172c-45,0 -65,-29 -115,-168c-26,-73 -50,-130 -54,-125c-4,4 -26,65 -50,136c-36,110 -46,129 -70,142c-34,18 -39,18 -65,3z"/>
   <path id="svg_9" d="m2213,2420c-12,-5 -29,-20 -39,-35c-16,-24 -15,-30 31,-168c85,-252 126,-361 142,-379c18,-20 64,-24 92,-8c12,6 37,60 67,145c26,74 51,135 54,135c3,0 25,-57 49,-127c46,-134 65,-163 111,-163c15,0 37,8 48,18c13,10 53,111 107,266c93,269 94,277 42,311c-28,18 -68,12 -89,-12c-7,-9 -34,-75 -60,-147c-40,-115 -47,-128 -55,-106c-5,14 -27,75 -48,135c-40,116 -60,145 -104,145c-42,0 -64,-34 -111,-165c-23,-66 -45,-124 -49,-128c-4,-4 -27,49 -51,118c-23,69 -50,134 -59,145c-20,23 -50,31 -78,20z"/>
   <path id="svg_10" d="m3250,2417c-55,-27 -52,-48 40,-319c58,-170 91,-255 105,-264c27,-19 79,-17 97,4c8,9 34,71 58,137c23,66 46,126 50,134c5,9 25,-39 55,-128c31,-93 53,-145 65,-151c30,-16 76,-12 94,9c19,20 185,483 186,514c0,30 -17,53 -49,66c-24,10 -34,10 -58,-3c-26,-13 -36,-33 -78,-150c-26,-75 -49,-136 -50,-136c-2,0 -22,57 -46,128c-45,132 -71,172 -111,172c-47,0 -64,-26 -114,-165c-26,-74 -51,-132 -55,-128c-4,5 -26,63 -49,130c-23,67 -50,128 -59,136c-25,23 -54,28 -81,14z"/>
   <path id="svg_11" d="m1985,1940c-26,-29 -24,-79 4,-102c70,-56 157,26 105,100c-20,29 -83,31 -109,2z"/>
   <path id="svg_12" d="m3036,1944c-48,-47 -18,-119 49,-119c29,0 42,6 58,27c35,47 3,108 -58,108c-18,0 -41,-7 -49,-16z"/>
  </g>
 </g>
</svg>