<svg width="512" height="512" xmlns="http://www.w3.org/2000/svg" preserveAspectRatio="xMidYMid meet">

 <g>
  <title>background</title>
  <rect fill="none" id="canvas_background" height="402" width="582" y="-1" x="-1"/>
 </g>
 <g>
  <title>Layer 1</title>
  <path fill="#ff0000" id="svg_6" d="m407.300006,81.999994c-4.5,1.8 -5.5,7.2 -2.2,11.4l2,2.6l25.4,0l25.4,0l2,-2.6c3.4,-4.3 2.6,-8.6 -2,-10.9c-2.2,-1.2 -7.5,-1.5 -25.6,-1.4c-12.5,0 -23.8,0.4 -25,0.9z"/>
  <path fill="#ffffff" id="svg_7" d="m232.500003,163.599995c-18.7,3.3 -39.600001,11.9 -55.400001,22.7c-10.1,7 -23.9,20.3 -31.2,30.1l-6,8.1l-30.2,0.5c-29.3,0.5 -30.3,0.6 -34.700001,2.9c-6.1,3.2 -9.7,6.7 -12.8,12.6l-2.7,5l-0.3,52.400001c-0.3,59.100001 -0.4,58.200001 7.1,66.700001c2.3,2.6 6.3,5.7 9.2,7c4.9,2.3 5.7,2.4 34.500001,2.4l29.5,0.1l5.5,7.6c19.5,27.1 52.200001,47.500001 86.500001,53.900001c13.1,2.5 36.300001,2.5 49.000001,0.1c35.900001,-7 69.400001,-28.3 88.200001,-56.400001l3.5,-5.2l31.7,-0.3l31.6,-0.3l4.6,-2.7c5.6,-3.3 9.4,-7.6 12.3,-13.8c1.9,-4.1 2.1,-6.3 2.1,-24.3c0,-19.7 0,-19.9 -2.4,-21.8c-2.8,-2.3 -6.8,-2.4 -9.6,-0.3c-1.8,1.4 -2,3 -2.5,20.7c-0.4,16.7 -0.7,19.6 -2.4,22c-4.1,6.1 8.5,5.7 -181.400003,5.7l-173.900003,0l-2.7,-2.1c-5.7,-4.5 -5.6,-3.5 -5.6,-57.100001c0,-55.200001 -0.1,-54.500001 7,-58.100001c3.3,-1.6 13.4,-1.7 177.200003,-1.5l173.600003,0.3l2.7,2.5c4.8,4.4 5.5,7.5 5.5,25c0,14.7 0.2,16.2 2,18c3,3 8.3,2.7 11,-0.7c2.1,-2.7 2.2,-3.6 1.8,-20.8c-0.4,-19.6 -1,-22.2 -6.7,-29.4c-1.6,-2 -5.3,-5 -8.3,-6.7l-5.3,-2.9l-31.2,-0.5l-31.2,-0.5l-6,-8.1c-20.3,-27.3 -53.500001,-47.400001 -87.300001,-52.900001c-11.6,-1.9 -35.400001,-1.8 -46.300001,0.1zm15.5,37.900001l0,23.5l-21.5,0c-14,0 -21.5,-0.4 -21.5,-1c0,-1.8 7.1,-15.2 11.3,-21.5c5.6,-8.3 15.1,-17.4 22.2,-21.2c10.1,-5.5 9.5,-6.8 9.5,20.2zm25.3,-20.3c11.2,5.9 22.1,18.7 30.6,35.500001c1.7,3.4 3.1,6.7 3.1,7.3c0,0.6 -7.4,1 -21.5,1l-21.5,0l0,-23.5c0,-26.9 -0.6,-25.6 9.3,-20.3zm-65.000001,7c-4.1,4.5 -11.8,17.4 -15.9,26.8l-4.2,9.5l-15.2,0.3l-15.2,0.3l5.2,-6.1c10.1,-11.7 22.6,-21.4 36.800001,-28.7c9.3,-4.8 11.5,-5.4 8.5,-2.1zm105.700002,3c13.5,7.2 25.2,16.4 35.000001,27.8l5.2,6.1l-15.2,-0.3l-15.3,-0.3l-3.3,-7.8c-3.9,-9 -9.9,-19.6 -15,-26.2c-3.2,-4.3 -3.3,-4.6 -1.2,-4c1.3,0.4 5.7,2.5 9.8,4.7zm-125.300002,184.500003c2.4,6.8 10.9,23.2 15.6,30l5.6,8.2l-5.6,-2.5c-12.7,-5.6 -25.9,-15.1 -37.100001,-26.9c-4.5,-4.6 -8.2,-8.9 -8.2,-9.5c0,-0.6 5.3,-1 14.5,-1c13,0 14.6,0.2 15.2,1.7zm59.300001,22.3l0,23.9l-4.2,-1.5c-9.1,-3.2 -20.1,-12.6 -27.5,-23.4c-3.4,-5 -11.3,-20.4 -11.3,-22c0,-0.6 7.5,-1 21.5,-1l21.5,0l0,24zm59.000001,-23c0,1.6 -7.9,17 -11.3,22c-7.4,10.8 -18.4,20.2 -27.5,23.4l-4.2,1.5l0,-23.9l0,-24l21.5,0c14,0 21.5,0.4 21.5,1zm46.000001,0.2c0,0.7 -5.1,6.2 -11.3,12.3c-11.5,11.1 -22.3,18.8 -33.900001,23.9l-5.7,2.5l5.6,-8.2c4.7,-6.8 13.2,-23.2 15.6,-30c0.6,-1.5 2.2,-1.7 15.2,-1.7c10.6,0 14.5,0.3 14.5,1.2z"/>
  <path fill="#ffffff" id="svg_8" d="m116.500002,270.199996c-2.8,1.5 -4.5,3.8 -4.5,6.2c0,3.7 16.9,51.100001 18.7,52.300001c2.5,1.9 7.7,1.6 9.6,-0.5c0.9,-1 3.7,-7.6 6.3,-14.7c2.5,-7.2 4.8,-13.1 4.9,-13.3c0.1,-0.1 2.3,5.7 4.9,13c2.6,7.3 5.4,14.1 6.3,15c1.9,2.1 7.2,2.4 9.6,0.5c1.8,-1.3 18.7,-48.400001 18.7,-52.100001c0,-3.1 -2.8,-6.4 -6,-7.1c-4.7,-1.1 -7.3,2.3 -12,15.7c-2.4,6.8 -4.6,12.6 -4.9,13c-0.4,0.4 -2.6,-5 -5,-12c-4.8,-13.8 -7,-17.2 -11.2,-17.2c-4.5,0 -6.5,2.9 -11.5,16.8c-2.6,7.3 -5,13 -5.4,12.5c-0.4,-0.4 -2.6,-6.5 -5,-13.6c-3.6,-11 -4.6,-12.9 -7,-14.2c-3.4,-1.8 -3.9,-1.8 -6.5,-0.3z"/>
  <path fill="#ffffff" id="svg_9" d="m221.300003,269.999996c-1.2,0.5 -2.9,2 -3.9,3.5c-1.6,2.4 -1.5,3 3.1,16.8c8.5,25.2 12.6,36.100001 14.2,37.900001c1.8,2 6.4,2.4 9.2,0.8c1.2,-0.6 3.7,-6 6.7,-14.5c2.6,-7.4 5.1,-13.5 5.4,-13.5c0.3,0 2.5,5.7 4.9,12.7c4.6,13.4 6.5,16.3 11.1,16.3c1.5,0 3.7,-0.8 4.8,-1.8c1.3,-1 5.3,-11.1 10.7,-26.6c9.3,-26.9 9.4,-27.7 4.2,-31.1c-2.8,-1.8 -6.8,-1.2 -8.9,1.2c-0.7,0.9 -3.4,7.5 -6,14.7c-4,11.5 -4.7,12.8 -5.5,10.6c-0.5,-1.4 -2.7,-7.5 -4.8,-13.5c-4,-11.6 -6,-14.5 -10.4,-14.5c-4.2,0 -6.4,3.4 -11.1,16.5c-2.3,6.6 -4.5,12.4 -4.9,12.8c-0.4,0.4 -2.7,-4.9 -5.1,-11.8c-2.3,-6.9 -5,-13.4 -5.9,-14.5c-2,-2.3 -5,-3.1 -7.8,-2z"/>
  <path fill="#ffffff" id="svg_10" d="m325.000005,270.299996c-5.5,2.7 -5.2,4.8 4,31.9c5.8,17 9.1,25.5 10.5,26.4c2.7,1.9 7.9,1.7 9.7,-0.4c0.8,-0.9 3.4,-7.1 5.8,-13.7c2.3,-6.6 4.6,-12.6 5,-13.4c0.5,-0.9 2.5,3.9 5.5,12.8c3.1,9.3 5.3,14.5 6.5,15.1c3,1.6 7.6,1.2 9.4,-0.9c1.9,-2 18.5,-48.300001 18.6,-51.400001c0,-3 -1.7,-5.3 -4.9,-6.6c-2.4,-1 -3.4,-1 -5.8,0.3c-2.6,1.3 -3.6,3.3 -7.8,15c-2.6,7.5 -4.9,13.6 -5,13.6c-0.2,0 -2.2,-5.7 -4.6,-12.8c-4.5,-13.2 -7.1,-17.2 -11.1,-17.2c-4.7,0 -6.4,2.6 -11.4,16.5c-2.6,7.4 -5.1,13.2 -5.5,12.8c-0.4,-0.5 -2.6,-6.3 -4.9,-13c-2.3,-6.7 -5,-12.8 -5.9,-13.6c-2.5,-2.3 -5.4,-2.8 -8.1,-1.4z"/>
  <path fill="#ff0000" id="svg_11" d="m198.500003,317.999997c-2.6,2.9 -2.4,7.9 0.4,10.2c7,5.6 15.7,-2.6 10.5,-10c-2,-2.9 -8.3,-3.1 -10.9,-0.2z"/>
  <path fill="#ff0000" id="svg_12" d="m303.600005,317.599997c-4.8,4.7 -1.8,11.9 4.9,11.9c2.9,0 4.2,-0.6 5.8,-2.7c3.5,-4.7 0.3,-10.8 -5.8,-10.8c-1.8,0 -4.1,0.7 -4.9,1.6z"/>
  <path fill="#ffffff" id="svg_2" d="m23.7,42.399993c-11,4.6 -18.2,12.3 -21.7,23.5c-2,6.2 -2,9 -2,190.000003c0,164.900002 0.2,184.300003 1.6,189.200003c3.3,11.4 11.9,20.7 22.9,24.8l5.6,2.1l225.900003,0c224.700003,0 226.000003,0 231.400003,-2c11.1,-4.2 19,-12.5 22.6,-23.9c2,-6.2 2,-9 2,-190.100003c0,-181.100003 0,-183.900003 -2,-190.100003c-3.6,-11.4 -11.5,-19.7 -22.6,-23.9c-5.4,-2 -6.7,-2 -231.700003,-2l-226.200003,0l-5.8,2.4zm463.400007,16.1c2.7,1.9 5.4,5 7.1,8.4l2.8,5.3l0,25.4l0,25.4l-190.900003,0c-185.000003,0 -190.900003,0.1 -193.200003,1.9c-3.2,2.6 -3.2,8.6 0,11.2c2.3,1.8 8.2,1.9 193.200003,1.9l190.900003,0l0,150.900002l0,150.900002l-2.8,5.3c-1.7,3.4 -4.4,6.5 -7.1,8.4l-4.3,3l-226.800003,0l-226.800003,0l-4.3,-3c-2.7,-1.9 -5.4,-5 -7.1,-8.4l-2.8,-5.3l0,-150.900002l0,-150.900002l34.900001,0c33.700001,0 34.900001,-0.1 37.500001,-2.1c3.6,-2.8 3.6,-8 0,-10.8c-2.6,-2 -3.8,-2.1 -37.500001,-2.1l-34.900001,0l0,-25c0,-26.9 0.3,-28.8 5.5,-35.600001c1.3,-1.7 4.3,-4.1 6.7,-5.3l4.3,-2.1l225.700003,0.2l225.600003,0.3l4.3,3z"/>
  <path fill="#ff0000" stroke="#ff0000" id="svg_3" d="m63.000001,81.699994c-3.2,1.2 -5,3.7 -5,7c0,9.3 13.9,9.9 14.2,0.5c0.2,-4.9 -5,-9 -9.2,-7.5z"/>
  <path fill="#ff0000" stroke="#ff0000" id="svg_4" d="m97.300001,81.999994c-4.5,1.8 -5.7,8.1 -2.3,11.8c3,3.2 8.2,3 10.9,-0.4c1.2,-1.5 2.1,-3.3 2.1,-4c0,-2.6 -2.3,-6.2 -4.7,-7.3c-2.8,-1.3 -3,-1.3 -6,-0.1z"/>
  <path fill="#ff0000" id="svg_5" d="m132.500002,82.199994c-4.9,2.6 -5.8,6.9 -2.4,11.2c5.1,6.5 15.3,0 12.3,-7.9c-0.6,-1.5 -5.4,-4.5 -7.1,-4.5c-0.4,0 -1.7,0.6 -2.8,1.2z"/>
 </g>
</svg>