<svg width="1200" height="700" xmlns="http://www.w3.org/2000/svg">

 <g>
  <title>background</title>
  <rect fill="none" id="canvas_background" height="402" width="582" y="-1" x="-1"/>
 </g>
 <g>
  <title>Layer 1</title>
  <g id="svg_1">
   <path id="svg_2" d="m-0.5,-0.5c400,0 800,0 1200,0c0,233.333 0,466.667 0,700c-400,0 -800,0 -1200,0c0,-233.333 0,-466.667 0,-700z" fill="none"/>
  </g>
  <g id="svg_3">
   <path id="svg_4" d="m600.5,24.5c-4.714,-0.1469 -9.381,0.1864 -14,1c2.307,-1.5468 4.973,-2.2135 8,-2c2.196,0.0046 4.196,0.338 6,1z" fill="#aaabad"/>
  </g>
  <g id="svg_5">
   <path id="svg_6" d="m600.5,24.5c5.695,2.672 11.695,4.5054 18,5.5c1.636,6.4368 3.969,12.6034 7,18.5c-0.448,27.2851 -14.115,38.7851 -41,34.5c-14.239,-6.9629 -20.905,-18.4629 -20,-34.5c3.231,-11.5645 10.564,-19.2311 22,-23c4.619,-0.8136 9.286,-1.1469 14,-1z" fill="#ffffff"/>
  </g>
  <g id="svg_7">
   <path id="svg_8" d="m587.5,28.5c5.011,-0.1659 10.011,0.0007 15,0.5c5.302,0.3941 7.802,3.2274 7.5,8.5c1.887,2.386 4.387,3.5527 7.5,3.5c6.809,13.4168 4.476,25.0834 -7,35c-20.572,9.9249 -34.405,4.0915 -41.5,-17.5c-1.214,-14.5747 4.952,-24.5747 18.5,-30z" fill="none"/>
  </g>
  <g id="svg_9">
   <path id="svg_10" d="m589.5,41.5c13.025,-1.4479 19.192,4.2188 18.5,17c-3.601,7.4228 -9.434,10.2561 -17.5,8.5c-11.65,-8.0389 -11.983,-16.5389 -1,-25.5z" fill="#ffffff"/>
  </g>
  <g id="svg_11">
   <path id="svg_12" d="m564.5,48.5c-0.905,16.0371 5.761,27.5371 20,34.5c26.885,4.2851 40.552,-7.2149 41,-34.5c3.711,17.0902 -2.289,29.9236 -18,38.5c-21.342,5.9954 -36.009,-1.3379 -44,-22c-0.103,-5.6039 0.23,-11.1039 1,-16.5z" fill="#e9e9ea"/>
  </g>
  <g id="svg_13">
   <path id="svg_14" d="m486.5,67.5c6.797,0.6073 8.464,3.7739 5,9.5c-8.47,0.531 -10.136,-2.6357 -5,-9.5z" fill="#4f8efd"/>
  </g>
  <g id="svg_15">
   <path id="svg_16" d="m748.5,94.5c5.018,2.3672 5.184,5.0338 0.5,8c-0.785,-1.786 -1.951,-3.286 -3.5,-4.5c1.926,-0.4224 2.926,-1.5891 3,-3.5z" fill="#2ee386"/>
  </g>
  <g id="svg_17">
   <path id="svg_18" d="m561.5,122.5c-2.731,-1.23 -5.731,-1.896 -9,-2c-2.855,0.003 -5.522,0.336 -8,1c-0.543,-0.06 -0.876,-0.393 -1,-1c5.963,-0.996 11.963,-1.329 18,-1c0,1 0,2 0,3z" fill="#8b8d8f"/>
  </g>
  <g id="svg_19">
   <path id="svg_20" d="m581.5,123.5c0.494,8.674 -3.506,12.174 -12,10.5c-3.692,-2.55 -5.358,-6.05 -5,-10.5c2.992,-4.757 7.325,-6.257 13,-4.5c1.541,1.371 2.875,2.871 4,4.5z" fill="#ff5c46"/>
  </g>
  <g id="svg_21">
   <path id="svg_22" d="m622.5,120.5c5.846,-1.317 11.846,-1.317 18,0c-0.124,0.607 -0.457,0.94 -1,1c-5.475,-0.989 -11.142,-1.322 -17,-1z" fill="#909294"/>
  </g>
  <g id="svg_23">
   <path id="svg_24" d="m676.5,120.5c-6.423,-0.291 -12.756,0.042 -19,1c2.758,-1.318 5.924,-1.985 9.5,-2c3.352,0.002 6.518,0.335 9.5,1z" fill="#8e9093"/>
  </g>
  <g id="svg_25">
   <path id="svg_26" d="m525.5,120.5c-10.153,0.994 -20.486,1.328 -31,1c0,20 0,40 0,60c4.333,0 8.667,0 13,0c0.667,0 1,0.333 1,1c-5,0 -10,0 -15,0c0,-20.667 0,-41.333 0,-62c10.667,0 21.333,0 32,0z" fill="#000001"/>
  </g>
  <g id="svg_27">
   <path id="svg_28" d="m525.5,120.5c0.333,0 0.667,0 1,0c16.339,8.224 19.506,20.224 9.5,36c-7.934,5.521 -16.767,7.521 -26.5,6c-0.616,5.637 -3.616,9.637 -9,12c3.377,1.377 5.711,3.71 7,7c-4.333,0 -8.667,0 -13,0c0,-20 0,-40 0,-60c10.514,0.328 20.847,-0.006 31,-1z" fill="#ffffff"/>
  </g>
  <g id="svg_29">
   <path id="svg_30" d="m561.5,122.5c3.216,12.472 6.716,24.805 10.5,37c4.479,-12.231 8.646,-24.565 12.5,-37c4.556,-1.942 9.556,-2.608 15,-2c3.276,13.204 7.109,26.204 11.5,39c4.413,-12.826 8.246,-25.826 11.5,-39c5.858,-0.322 11.525,0.011 17,1c-3.312,9.915 -6.312,19.915 -9,30c-4.103,9.98 -7.437,20.313 -10,31c-6,0 -12,0 -18,0c-2.828,-11.975 -6.495,-23.641 -11,-35c-4.558,11.121 -8.558,22.454 -12,34c-5.667,1.333 -11.333,1.333 -17,0c-2.758,-9.511 -5.758,-18.845 -9,-28c-2.592,-10.776 -5.592,-21.443 -9,-32c2.478,-0.664 5.145,-0.997 8,-1c3.269,0.104 6.269,0.77 9,2z" fill="#ffffff"/>
  </g>
  <g id="svg_31">
   <path id="svg_32" d="m676.5,120.5c7.968,20.529 15.635,41.196 23,62c-5.667,1.333 -11.333,1.333 -17,0c-1.26,-3.217 -2.593,-6.384 -4,-9.5c-7.993,-0.5 -15.993,-0.666 -24,-0.5c-0.817,2.979 -1.651,5.979 -2.5,9c-2.041,0.923 -4.208,1.256 -6.5,1c-0.667,-1.333 -1.333,-1.333 -2,0c-3,0 -6,0 -9,0c7.207,-20.486 14.874,-40.819 23,-61c6.244,-0.958 12.577,-1.291 19,-1z" fill="#ffffff"/>
  </g>
  <g id="svg_35">
   <path id="svg_36" d="m522.5,145.5c-1.059,-6.771 -4.559,-8.771 -10.5,-6c-0.333,-0.333 -0.667,-0.667 -1,-1c-0.498,3.317 -0.665,6.65 -0.5,10c2,0 4,0 6,0c-2.107,0.968 -4.441,1.302 -7,1c0,-5.667 0,-11.333 0,-17c10.044,-1.766 14.877,2.234 14.5,12c-0.383,0.556 -0.883,0.889 -1.5,1z" fill="#dededf"/>
  </g>
  <g id="svg_37">
   <path id="svg_38" d="m522.5,145.5c-1.187,2.475 -3.187,3.475 -6,3c-2,0 -4,0 -6,0c-0.165,-3.35 0.002,-6.683 0.5,-10c0.333,0.333 0.667,0.667 1,1c5.941,-2.771 9.441,-0.771 10.5,6z" fill="#000000"/>
  </g>
  <g id="svg_39">
   <path id="svg_40" d="m561.5,122.5c0.722,0.418 1.222,1.084 1.5,2c0.383,-0.556 0.883,-0.889 1.5,-1c-0.358,4.45 1.308,7.95 5,10.5c8.494,1.674 12.494,-1.826 12,-10.5c0.617,0.111 1.117,0.444 1.5,1c0.278,-0.916 0.778,-1.582 1.5,-2c-3.854,12.435 -8.021,24.769 -12.5,37c-3.784,-12.195 -7.284,-24.528 -10.5,-37z" fill="#eae9e9"/>
  </g>
  <g id="svg_41">
   <path id="svg_42" d="m666.5,140.5c3.1,5.947 5.766,12.28 8,19c-4.62,0.993 -9.286,1.327 -14,1c1.378,-6.845 3.378,-13.512 6,-20z" fill="#e2e3e3"/>
  </g>
  <g id="svg_43">
   <path id="svg_44" d="m721.5,154.5c9.157,-1.011 12.99,2.989 11.5,12c-5,5.333 -10,5.333 -15,0c-1.407,-4.901 -0.24,-8.901 3.5,-12z" fill="#498bfd"/>
  </g>
  <g id="svg_45">
   <path id="svg_46" d="m509.5,162.5c0.638,5.256 3.304,9.256 8,12c-3.382,2.715 -6.382,5.715 -9,9c0,-0.333 0,-0.667 0,-1c0,-0.667 -0.333,-1 -1,-1c-1.289,-3.29 -3.623,-5.623 -7,-7c5.384,-2.363 8.384,-6.363 9,-12z" fill="#2ad77e"/>
  </g>
  <g id="svg_47">
   <path id="svg_48" d="m340.5,165.5c5.335,-0.495 7.835,1.838 7.5,7c-2.706,3.478 -5.706,3.811 -9,1c-0.891,-2.998 -0.391,-5.664 1.5,-8z" fill="#2fe386"/>
  </g>
  <g id="svg_49">
   <path id="svg_50" d="m630.5,151.5c0.667,2.319 0.834,4.653 0.5,7c-2.67,8.011 -5.337,16.011 -8,24c-0.785,1.786 -1.951,3.286 -3.5,4.5c-5.333,0.667 -10.667,0.667 -16,0c-2.394,-1.952 -3.894,-4.452 -4.5,-7.5c-1.296,-4.342 -1.796,-8.675 -1.5,-13c-1,0 -2,0 -3,0c-0.105,-3.155 -1.272,-5.822 -3.5,-8c-3.411,9.073 -6.911,18.073 -10.5,27c-0.525,0.692 -1.192,1.192 -2,1.5c-5,0.667 -10,0.667 -15,0c-1.5,-0.833 -2.667,-2 -3.5,-3.5c-3.992,-9.758 -6.158,-19.758 -6.5,-30c3.242,9.155 6.242,18.489 9,28c5.667,1.333 11.333,1.333 17,0c3.442,-11.546 7.442,-22.879 12,-34c4.505,11.359 8.172,23.025 11,35c6,0 12,0 18,0c2.563,-10.687 5.897,-21.02 10,-31z" fill="#e5e5e6"/>
  </g>
  <g id="svg_51">
   <path id="svg_52" d="m645.5,182.5c0.416,2.252 1.749,3.752 4,4.5c-2.124,1.122 -3.957,2.622 -5.5,4.5c-1.5,-1.5 -3,-3 -4.5,-4.5c2.251,-0.748 3.584,-2.248 4,-4.5c0.667,-1.333 1.333,-1.333 2,0z" fill="#f9be4a"/>
  </g>
  <g id="svg_53">
   <path id="svg_54" d="m403.5,198.5c6.032,2.044 6.365,4.71 1,8c-1.148,-1.649 -2.481,-3.149 -4,-4.5c1.21,-1.039 2.21,-2.206 3,-3.5z" fill="#fec14f"/>
  </g>
  <g id="svg_55">
   <path id="svg_56" d="m872.5,201.5c1.857,3.51 4.524,6.343 8,8.5c-3.585,1.916 -6.085,4.749 -7.5,8.5c-1.5,-4.167 -4.333,-7 -8.5,-8.5c3.548,-2.047 6.215,-4.88 8,-8.5z" fill="#4c8cfd"/>
  </g>
  <g id="svg_57">
   <path id="svg_58" d="m670.5,228.5c-50.333,0 -100.667,0 -151,0c0.418,-0.722 1.084,-1.222 2,-1.5c48,-0.667 96,-0.667 144,0c1.882,0.198 3.548,0.698 5,1.5z" fill="#1f242d"/>
  </g>
  <g id="svg_59">
   <path id="svg_60" d="m519.5,228.5c50.333,0 100.667,0 151,0c7.892,1.113 14.559,4.613 20,10.5c30.659,-0.469 61.326,-0.469 92,0c16.757,0.783 33.424,2.449 50,5c9.973,4.304 15.807,11.804 17.5,22.5c0.667,105.667 0.667,211.333 0,317c-1.307,9.97 -6.473,17.137 -15.5,21.5c-16.563,2.99 -33.229,5.323 -50,7c-31.706,0.822 -63.372,0.488 -95,-1c-6.724,6.361 -14.724,10.027 -24,11c-48,0.667 -96,0.667 -144,0c-9.485,-2.077 -17.485,-6.744 -24,-14c-46.168,-0.167 -92.168,-0.667 -138,-1.5c182.667,-0.333 182.667,-0.667 0,-1c0,-13.333 0,-26.667 0,-40c0,-107.667 0,-215.333 0,-323c184,-0.333 184,-0.667 0,-1c46.165,-0.833 92.498,-1.333 139,-1.5c5.574,-6.454 12.574,-10.287 21,-11.5z" fill="#ffffff"/>
  </g>
  <g id="svg_61">
   <path id="svg_62" d="m520.5,238.5c49.668,-0.167 99.334,0 149,0.5c16.389,6.598 23.722,18.764 22,36.5c-64.333,0 -128.667,0 -193,0c-1.598,-17.825 5.736,-30.158 22,-37z" fill="none"/>
  </g>
  <g id="svg_63">
   <path id="svg_64" d="m359.5,241.5c184,0.333 184,0.667 0,1c0,107.667 0,215.333 0,323c-0.333,0 -0.667,0 -1,0c0,-102.667 0,-205.333 0,-308c-0.321,-5.526 0.012,-10.86 1,-16z" fill="#181101"/>
  </g>
  <g id="svg_65">
   <path id="svg_66" d="m271.5,239.5c2.06,5.229 5.726,9.063 11,11.5c-5.404,1.615 -8.904,5.115 -10.5,10.5c-2.256,-5.257 -6.09,-8.757 -11.5,-10.5c5.916,-1.748 9.583,-5.581 11,-11.5z" fill="#4c8cfd"/>
  </g>
  <g id="svg_67">
   <path id="svg_68" d="m776.5,250.5c17.411,0.609 34.744,2.109 52,4.5c4.403,1.948 7.57,5.114 9.5,9.5c0.5,7.659 0.666,15.326 0.5,23c-2,0 -4,0 -6,0c0,-6.333 0,-12.667 0,-19c-27,0 -54,0 -81,0c-1.862,-6.43 -5.862,-8.263 -12,-5.5c-1.383,1.271 -2.383,2.771 -3,4.5c-8.673,0.166 -17.34,0 -26,-0.5c1,-0.333 2,-0.667 3,-1c-0.864,-4.789 -2.198,-9.455 -4,-14c22.301,-1.409 44.635,-1.909 67,-1.5z" fill="none"/>
  </g>
  <g id="svg_69">
   <path id="svg_70" d="m488.5,257.5c-2.333,0 -4.667,0 -7,0c-1.357,-1.999 -0.69,-3.165 2,-3.5c-37.665,-0.5 -75.332,-0.667 -113,-0.5c0,1.333 0,2.667 0,4c-0.333,0 -0.667,0 -1,0c0,-1.667 0,-3.333 0,-5c40,0 80,0 120,0c-0.129,1.716 -0.462,3.383 -1,5z" fill="#c6c7c9"/>
  </g>
  <g id="svg_71">
   <path id="svg_72" d="m776.5,250.5c-22.365,-0.409 -44.699,0.091 -67,1.5c1.802,4.545 3.136,9.211 4,14c-1,0.333 -2,0.667 -3,1c8.66,0.5 17.327,0.666 26,0.5c0,0.333 0,0.667 0,1c-11.333,0 -22.667,0 -34,0c0.165,-3.682 -0.001,-7.348 -0.5,-11c-1.411,-2.15 -2.245,-4.484 -2.5,-7c25.828,-1.203 51.494,-1.203 77,0z" fill="#dddbd8"/>
  </g>
  <g id="svg_73">
   <path id="svg_74" d="m481.5,257.5c-37,0 -74,0 -111,0c0,-1.333 0,-2.667 0,-4c37.668,-0.167 75.335,0 113,0.5c-2.69,0.335 -3.357,1.501 -2,3.5z" fill="none"/>
  </g>
  <g id="svg_75">
   <path id="svg_76" d="m567.5,252.5c18.003,-0.167 36.003,0 54,0.5c3.428,2.145 3.928,4.979 1.5,8.5c-0.75,0.626 -1.584,1.126 -2.5,1.5c-17.333,0.667 -34.667,0.667 -52,0c-3.434,-3.298 -3.767,-6.798 -1,-10.5z" fill="#24272d"/>
  </g>
  <g id="svg_77">
   <path id="svg_78" d="m346.5,258.5c3.871,-0.315 7.538,0.018 11,1c-3.333,0 -6.667,0 -10,0c0,101.667 0,203.333 0,305c3.333,0 6.667,0 10,0c0,0.333 0,0.667 0,1c-3.667,0 -7.333,0 -11,0c0,-102.333 0,-204.667 0,-307z" fill="#017cfd"/>
  </g>
  <g id="svg_79">
   <path id="svg_80" d="m357.5,259.5c0,101.667 0,203.333 0,305c-3.333,0 -6.667,0 -10,0c0,-101.667 0,-203.333 0,-305c3.333,0 6.667,0 10,0z" fill="#498bfd"/>
  </g>
  <g id="svg_81">
   <path id="svg_82" d="m346.5,258.5c3.798,-0.983 7.798,-1.317 12,-1c0,102.667 0,205.333 0,308c-0.333,0 -0.667,0 -1,0c0,-0.333 0,-0.667 0,-1c0,-101.667 0,-203.333 0,-305c-3.462,-0.982 -7.129,-1.315 -11,-1z" fill="#4675ce"/>
  </g>
  <g id="svg_83">
   <path id="svg_84" d="m369.5,257.5c0.333,0 0.667,0 1,0c37,0 74,0 111,0c2.333,0 4.667,0 7,0c-0.841,1.879 -1.175,3.879 -1,6c-39.333,0 -78.667,0 -118,0c0,-2 0,-4 0,-6z" fill="#528dfb"/>
  </g>
  <g id="svg_85">
   <path id="svg_86" d="m914.5,256.5c3.03,4.818 6.697,9.318 11,13.5c2.882,1.608 5.882,2.941 9,4c-9.444,2.944 -15.778,9.111 -19,18.5c-2.619,-10.45 -9.286,-16.616 -20,-18.5c9.818,-2.213 16.151,-8.046 19,-17.5z" fill="#fec04a"/>
  </g>
  <g id="svg_87">
   <path id="svg_88" d="m751.5,268.5c-1.587,7.545 -5.754,9.545 -12.5,6c-1.559,-1.717 -2.392,-3.717 -2.5,-6c0,-0.333 0,-0.667 0,-1c0.617,-1.729 1.617,-3.229 3,-4.5c6.138,-2.763 10.138,-0.93 12,5.5z" fill="#2e2f36"/>
  </g>
  <g id="svg_89">
   <path id="svg_90" d="m702.5,268.5c11.333,0 22.667,0 34,0c0.108,2.283 0.941,4.283 2.5,6c6.746,3.545 10.913,1.545 12.5,-6c27,0 54,0 81,0c0,6.333 0,12.667 0,19c-43.333,0 -86.667,0 -130,0c0,-6.333 0,-12.667 0,-19z" fill="#fabd46"/>
  </g>
  <g id="svg_91">
   <path id="svg_92" d="m475.5,275.5c0.342,0.838 1.008,1.172 2,1c-0.667,44.667 -1.333,89.333 -2,134c0.667,2.667 1.333,5.333 2,8c-0.834,1.248 -2.167,1.915 -4,2c-1.545,-0.011 -2.878,-0.344 -4,-1c0.987,-2.646 1.987,-5.312 3,-8c-1.667,-1.333 -3.333,-1.333 -5,0c-1.995,4.309 -3.995,8.642 -6,13c-1.968,-4.941 -4.301,-9.608 -7,-14c-2.256,4.925 -4.422,9.925 -6.5,15c-1.828,-4.625 -3.662,-9.292 -5.5,-14c-1.545,-0.952 -3.212,-1.285 -5,-1c0.378,2.421 1.045,4.754 2,7c0,1 0,2 0,3c-2.885,0.306 -5.552,-0.027 -8,-1c0.987,-2.646 1.987,-5.312 3,-8c-1.853,-1.26 -3.686,-1.26 -5.5,0c-1.543,4.465 -3.377,8.799 -5.5,13c-2.339,-4.783 -4.672,-9.45 -7,-14c-2.256,4.925 -4.422,9.925 -6.5,15c-1.556,-4.778 -3.39,-9.445 -5.5,-14c-1.545,-0.952 -3.212,-1.285 -5,-1c0.378,2.421 1.045,4.754 2,7c-1.052,1.756 -2.719,2.423 -5,2c0,10.667 0,21.333 0,32c26.667,0 53.333,0 80,0c0.33,37.573 -0.004,75.073 -1,112.5c1.558,0.21 2.891,0.71 4,1.5c-36.667,0 -73.333,0 -110,0c0,-96.667 0,-193.333 0,-290c35.333,0 70.667,0 106,0z" fill="#488afc"/>
  </g>
  <g id="svg_93">
   <path id="svg_94" d="m475.5,275.5c4,0 8,0 12,0c0,49.667 0,99.333 0,149c-0.617,0.111 -1.117,0.444 -1.5,1c-1.807,-4.256 -3.307,-8.589 -4.5,-13c0,-45.333 0,-90.667 0,-136c-1.333,0 -2.667,0 -4,0c-0.992,0.172 -1.658,-0.162 -2,-1z" fill="#3b6ec8"/>
  </g>
  <g id="svg_95">
   <path id="svg_96" d="m498.5,287.5c64,0 128,0 192,0c0,91.667 0,183.333 0,275c-2.667,0 -5.333,0 -8,0c0,-89.333 0,-178.667 0,-268c-61.333,0 -122.667,0 -184,0c0,-2.333 0,-4.667 0,-7z" fill="none"/>
  </g>
  <g id="svg_97">
   <path id="svg_98" d="m690.5,287.5c0.999,91.832 1.333,183.832 1,276c-3,0 -6,0 -9,0c0,-0.333 0,-0.667 0,-1c2.667,0 5.333,0 8,0c0,-91.667 0,-183.333 0,-275z" fill="#cdcdce"/>
  </g>
  <g id="svg_99">
   <path id="svg_100" d="m498.5,287.5c0,2.333 0,4.667 0,7c0,0.333 0,0.667 0,1c0,89.333 0,178.667 0,268c61,0 122,0 183,0c0.333,0 0.667,0 1,0c3,0 6,0 9,0c-2.787,0.977 -5.787,1.31 -9,1c0,3 0,6 0,9c3.213,-0.31 6.213,0.023 9,1c-3,0 -6,0 -9,0c-0.333,0 -0.667,0 -1,0c-61,0 -122,0 -183,0c-0.318,4.532 0.015,8.866 1,13c0,0.667 0,1.333 0,2c-1.69,0.258 -3.69,0.258 -6,0c0,-98 0,-196 0,-294c1.333,0 2.667,0 4,0c-0.306,-2.885 0.027,-5.552 1,-8z" fill="#ffffff"/>
  </g>
  <g id="svg_101">
   <path id="svg_102" d="m498.5,295.5c0,-0.333 0,-0.667 0,-1c61.333,0 122.667,0 184,0c0,89.333 0,178.667 0,268c0,0.333 0,0.667 0,1c-0.333,0 -0.667,0 -1,0c0,-0.333 0,-0.667 0,-1c0,-89 0,-178 0,-267c-60.667,0 -121.333,0 -182,0c-0.333,0 -0.667,0 -1,0z" fill="#a4edbc"/>
  </g>
  <g id="svg_103">
   <path id="svg_104" d="m498.5,295.5c0.333,0 0.667,0 1,0c0,0.333 0,0.667 0,1c0,88.667 0,177.333 0,266c60.333,0 120.667,0 181,0c0.333,0 0.667,0 1,0c0,0.333 0,0.667 0,1c-61,0 -122,0 -183,0c0,-89.333 0,-178.667 0,-268z" fill="#1ab366"/>
  </g>
  <g id="svg_105">
   <path id="svg_106" d="m499.5,296.5c60.333,0 120.667,0 181,0c0,88.667 0,177.333 0,266c-60.333,0 -120.667,0 -181,0c0,-88.667 0,-177.333 0,-266z" fill="#25e383"/>
  </g>
  <g id="svg_107">
   <path id="svg_108" d="m499.5,296.5c0,-0.333 0,-0.667 0,-1c60.667,0 121.333,0 182,0c0,89 0,178 0,267c-0.333,0 -0.667,0 -1,0c0,-88.667 0,-177.333 0,-266c-60.333,0 -120.667,0 -181,0z" fill="#00e071"/>
  </g>
  <g id="svg_109">
   <path id="svg_110" d="m718.5,299.5c38,0 76,0 114,0c0,83.667 0,167.333 0,251c-41,0 -82,0 -123,0c-0.326,-33.073 0.008,-66.073 1,-99c29.667,0 59.333,0 89,0c0,-10.667 0,-21.333 0,-32c-2.235,0.295 -4.235,-0.039 -6,-1c0.6,-2.798 1.6,-5.465 3,-8c-1.574,-1.131 -3.241,-1.298 -5,-0.5c-2.134,4.435 -4.134,8.935 -6,13.5c-1.881,-5.148 -4.047,-10.148 -6.5,-15c-2.713,4.795 -5.046,9.795 -7,15c-1.667,-4.333 -3.333,-8.667 -5,-13c-1.699,-0.906 -3.533,-1.239 -5.5,-1c0.713,3.094 1.713,6.094 3,9c-1.014,1.265 -2.514,1.931 -4.5,2c-1.986,-0.069 -3.486,-0.735 -4.5,-2c0.6,-2.798 1.6,-5.465 3,-8c-1.574,-1.131 -3.241,-1.298 -5,-0.5c-2.134,4.435 -4.134,8.935 -6,13.5c-1.881,-5.148 -4.047,-10.148 -6.5,-15c-2.713,4.795 -5.046,9.795 -7,15c-1.667,-4.333 -3.333,-8.667 -5,-13c-1.699,-0.906 -3.533,-1.239 -5.5,-1c0.713,3.094 1.713,6.094 3,9c-1.014,1.265 -2.514,1.931 -4.5,2c-1.986,-0.069 -3.486,-0.735 -4.5,-2c0.802,-3.074 1.802,-6.074 3,-9c-1.068,-0.934 -2.401,-1.268 -4,-1c0.33,-35.906 -0.004,-71.74 -1,-107.5c1.237,-0.232 2.237,-0.732 3,-1.5z" fill="#fdbf48"/>
  </g>
  <g id="svg_111">
   <path id="svg_112" d="m832.5,299.5c2,0 4,0 6,0c0,84 0,168 0,252c-2,0 -4,0 -6,0c0,-0.333 0,-0.667 0,-1c0,-83.667 0,-167.333 0,-251z" fill="none"/>
  </g>
  <g id="svg_113">
   <path id="svg_114" d="m309.5,298.5c6.804,-1.279 10.804,1.388 12,8c-1.489,7.086 -5.823,9.586 -13,7.5c-5.526,-5.643 -5.192,-10.81 1,-15.5z" fill="#ff5c46"/>
  </g>
  <g id="svg_115">
   <path id="svg_116" d="m477.5,276.5c1.333,0 2.667,0 4,0c0,45.333 0,90.667 0,136c-1.614,-1.575 -3.614,-2.241 -6,-2c0.667,-44.667 1.333,-89.333 2,-134z" fill="#4380eb"/>
  </g>
  <g id="svg_117">
   <path id="svg_118" d="m707.5,299.5c0.332,38.504 -0.001,76.837 -1,115c-1.1,-1.777 -1.934,-3.777 -2.5,-6c-0.499,4.989 -0.666,9.989 -0.5,15c0,42.667 0,85.333 0,128c-0.999,-83.832 -1.333,-167.832 -1,-252c1.667,0 3.333,0 5,0z" fill="#be903b"/>
  </g>
  <g id="svg_119">
   <path id="svg_120" d="m707.5,299.5c3.667,0 7.333,0 11,0c-0.763,0.768 -1.763,1.268 -3,1.5c0.996,35.76 1.33,71.594 1,107.5c1.599,-0.268 2.932,0.066 4,1c-1.967,-0.239 -3.801,0.094 -5.5,1c-1.838,4.342 -3.672,8.675 -5.5,13c-1.601,-2.804 -2.601,-5.804 -3,-9c0.999,-38.163 1.332,-76.496 1,-115z" fill="#eeb444"/>
  </g>
  <g id="svg_121">
   <path id="svg_122" d="m879.5,378.5c1.554,1.193 3.221,2.36 5,3.5c-1.185,1.353 -2.519,2.52 -4,3.5c-1.481,-0.98 -2.815,-2.147 -4,-3.5c1.926,-0.422 2.926,-1.589 3,-3.5z" fill="#fec24e"/>
  </g>
  <g id="svg_123">
   <path id="svg_124" d="m280.5,391.5c7.128,0.206 8.794,3.373 5,9.5c-6.002,0.993 -8.168,-1.507 -6.5,-7.5c0.717,-0.544 1.217,-1.211 1.5,-2z" fill="#fdc04a"/>
  </g>
  <g id="svg_125">
   <path id="svg_126" d="m469.5,419.5c-2.723,5.975 -5.556,11.975 -8.5,18c-1.804,-5.08 -3.804,-10.08 -6,-15c-2.333,5 -4.667,10 -7,15c-2.944,-6.681 -5.778,-13.348 -8.5,-20c-0.955,-2.246 -1.622,-4.579 -2,-7c1.788,-0.285 3.455,0.048 5,1c1.838,4.708 3.672,9.375 5.5,14c2.078,-5.075 4.244,-10.075 6.5,-15c2.699,4.392 5.032,9.059 7,14c2.005,-4.358 4.005,-8.691 6,-13c1.667,-1.333 3.333,-1.333 5,0c-1.013,2.688 -2.013,5.354 -3,8z" fill="#adcafe"/>
  </g>
  <g id="svg_127">
   <path id="svg_128" d="m706.5,414.5c0.399,3.196 1.399,6.196 3,9c1.828,-4.325 3.662,-8.658 5.5,-13c1.699,-0.906 3.533,-1.239 5.5,-1c-1.198,2.926 -2.198,5.926 -3,9c-2.903,5.36 -5.236,11.027 -7,17c-0.876,0.131 -1.543,-0.202 -2,-1c-1.496,-3.853 -3.162,-7.519 -5,-11c-0.166,-5.011 0.001,-10.011 0.5,-15c0.566,2.223 1.4,4.223 2.5,6z" fill="#ecd58f"/>
  </g>
  <g id="svg_129">
   <path id="svg_130" d="m431.5,419.5c-2.528,6.061 -5.362,12.061 -8.5,18c-1.804,-5.08 -3.804,-10.08 -6,-15c-2.333,5 -4.667,10 -7,15c-2.956,-6.726 -5.789,-13.393 -8.5,-20c-0.955,-2.246 -1.622,-4.579 -2,-7c1.788,-0.285 3.455,0.048 5,1c2.11,4.555 3.944,9.222 5.5,14c2.078,-5.075 4.244,-10.075 6.5,-15c2.328,4.55 4.661,9.217 7,14c2.123,-4.201 3.957,-8.535 5.5,-13c1.814,-1.26 3.647,-1.26 5.5,0c-1.013,2.688 -2.013,5.354 -3,8z" fill="#adcafe"/>
  </g>
  <g id="svg_131">
   <path id="svg_132" d="m475.5,410.5c2.386,-0.241 4.386,0.425 6,2c1.193,4.411 2.693,8.744 4.5,13c0.383,-0.556 0.883,-0.889 1.5,-1c0,4.333 0,8.667 0,13c-1.574,-0.437 -2.741,-1.437 -3.5,-3c-0.379,-2.53 -1.213,-4.863 -2.5,-7c-0.963,-3.244 -2.296,-6.244 -4,-9c-0.667,-2.667 -1.333,-5.333 -2,-8z" fill="#92abd7"/>
  </g>
  <g id="svg_133">
   <path id="svg_134" d="m717.5,418.5c1.014,1.265 2.514,1.931 4.5,2c1.986,-0.069 3.486,-0.735 4.5,-2c2.281,5.843 4.948,11.509 8,17c2.407,-4.568 4.574,-9.235 6.5,-14c1.884,4.829 4.051,9.495 6.5,14c2.686,-5.759 5.353,-11.426 8,-17c1.014,1.265 2.514,1.931 4.5,2c1.986,-0.069 3.486,-0.735 4.5,-2c2.281,5.843 4.948,11.509 8,17c1.689,-4.904 3.855,-9.57 6.5,-14c1.884,4.829 4.051,9.495 6.5,14c2.686,-5.759 5.353,-11.426 8,-17c1.765,0.961 3.765,1.295 6,1c0,10.667 0,21.333 0,32c-29.667,0 -59.333,0 -89,0c-1.302,-5.234 -1.302,-10.567 0,-16c1.764,-5.973 4.097,-11.64 7,-17z" fill="#fdca5d"/>
  </g>
  <g id="svg_135">
   <path id="svg_136" d="m401.5,417.5c2.711,6.607 5.544,13.274 8.5,20c2.333,-5 4.667,-10 7,-15c2.196,4.92 4.196,9.92 6,15c3.138,-5.939 5.972,-11.939 8.5,-18c2.448,0.973 5.115,1.306 8,1c0,-1 0,-2 0,-3c2.722,6.652 5.556,13.319 8.5,20c2.333,-5 4.667,-10 7,-15c2.196,4.92 4.196,9.92 6,15c2.944,-6.025 5.777,-12.025 8.5,-18c1.122,0.656 2.455,0.989 4,1c1.833,-0.085 3.166,-0.752 4,-2c1.704,2.756 3.037,5.756 4,9c-1.18,7.694 -1.18,15.694 0,24c-1.667,0 -3.333,0 -5,0c-26.667,0 -53.333,0 -80,0c0,-10.667 0,-21.333 0,-32c2.281,0.423 3.948,-0.244 5,-2z" fill="#5b95fc"/>
  </g>
  <g id="svg_137">
   <path id="svg_138" d="m755.5,418.5c-2.647,5.574 -5.314,11.241 -8,17c-2.449,-4.505 -4.616,-9.171 -6.5,-14c-1.926,4.765 -4.093,9.432 -6.5,14c-3.052,-5.491 -5.719,-11.157 -8,-17c-1.287,-2.906 -2.287,-5.906 -3,-9c1.967,-0.239 3.801,0.094 5.5,1c1.667,4.333 3.333,8.667 5,13c1.954,-5.205 4.287,-10.205 7,-15c2.453,4.852 4.619,9.852 6.5,15c1.866,-4.565 3.866,-9.065 6,-13.5c1.759,-0.798 3.426,-0.631 5,0.5c-1.4,2.535 -2.4,5.202 -3,8z" fill="#ffe699"/>
  </g>
  <g id="svg_139">
   <path id="svg_140" d="m793.5,418.5c-2.647,5.574 -5.314,11.241 -8,17c-2.449,-4.505 -4.616,-9.171 -6.5,-14c-2.645,4.43 -4.811,9.096 -6.5,14c-3.052,-5.491 -5.719,-11.157 -8,-17c-1.287,-2.906 -2.287,-5.906 -3,-9c1.967,-0.239 3.801,0.094 5.5,1c1.667,4.333 3.333,8.667 5,13c1.954,-5.205 4.287,-10.205 7,-15c2.453,4.852 4.619,9.852 6.5,15c1.866,-4.565 3.866,-9.065 6,-13.5c1.759,-0.798 3.426,-0.631 5,0.5c-1.4,2.535 -2.4,5.202 -3,8z" fill="#ffe699"/>
  </g>
  <g id="svg_141">
   <path id="svg_142" d="m568.5,430.5c-3.075,5.819 -5.908,11.819 -8.5,18c-1.951,-5.862 -4.285,-11.529 -7,-17c-2.333,5.667 -4.667,11.333 -7,17c-2.76,-6.477 -5.593,-12.81 -8.5,-19c-0.795,-3.05 -1.795,-6.05 -3,-9c1.896,-0.966 3.896,-1.299 6,-1c1.256,5.186 3.09,10.186 5.5,15c2.217,-5.826 4.717,-11.492 7.5,-17c2.529,5.586 4.862,11.253 7,17c1.995,-4.658 3.995,-9.325 6,-14c1.921,-1.141 3.921,-1.308 6,-0.5c-1.754,3.341 -3.087,6.841 -4,10.5z" fill="#9bfdd2"/>
  </g>
  <g id="svg_143">
   <path id="svg_144" d="m610.5,429.5c-2.907,6.19 -5.74,12.523 -8.5,19c-2.333,-5.667 -4.667,-11.333 -7,-17c-2.591,5.601 -5.091,11.267 -7.5,17c-2.69,-6.428 -5.357,-12.762 -8,-19c-1.401,-3.204 -2.401,-6.537 -3,-10c1.967,-0.239 3.801,0.094 5.5,1c1.737,4.712 3.57,9.378 5.5,14c2.409,-5.733 4.909,-11.399 7.5,-17c2.715,5.471 5.049,11.138 7,17c2.263,-4.624 4.43,-9.291 6.5,-14c1.921,-1.141 3.921,-1.308 6,-0.5c-1.628,3.052 -2.961,6.218 -4,9.5z" fill="#9bfdd1"/>
  </g>
  <g id="svg_145">
   <path id="svg_146" d="m652.5,429.5c-3.174,6.155 -6.174,12.488 -9,19c-2.145,-5.776 -4.479,-11.442 -7,-17c-2.529,5.586 -4.862,11.253 -7,17c-2.7,-6.06 -5.367,-12.06 -8,-18c-0.913,-3.659 -2.246,-7.159 -4,-10.5c2.079,-0.808 4.079,-0.641 6,0.5c1.931,4.627 3.765,9.294 5.5,14c2.591,-5.601 5.091,-11.267 7.5,-17c2.783,5.508 5.283,11.174 7.5,17c2,-4.667 4,-9.333 6,-14c1.699,-0.906 3.533,-1.239 5.5,-1c-1,3.333 -2,6.667 -3,10z" fill="#9afdd1"/>
  </g>
  <g id="svg_147">
   <path id="svg_148" d="m537.5,429.5c2.907,6.19 5.74,12.523 8.5,19c2.333,-5.667 4.667,-11.333 7,-17c2.715,5.471 5.049,11.138 7,17c2.592,-6.181 5.425,-12.181 8.5,-18c1.634,0.661 3.467,0.994 5.5,1c2.295,-0.047 4.129,-0.713 5.5,-2c2.643,6.238 5.31,12.572 8,19c2.409,-5.733 4.909,-11.399 7.5,-17c2.333,5.667 4.667,11.333 7,17c2.76,-6.477 5.593,-12.81 8.5,-19c1.371,1.287 3.205,1.953 5.5,2c2.033,-0.006 3.866,-0.339 5.5,-1c2.633,5.94 5.3,11.94 8,18c2.138,-5.747 4.471,-11.414 7,-17c2.521,5.558 4.855,11.224 7,17c2.826,-6.512 5.826,-12.845 9,-19c1.779,1.844 4.112,2.51 7,2c0,10.667 0,21.333 0,32c-43,0 -86,0 -129,0c0,-10.667 0,-21.333 0,-32c2.888,0.51 5.221,-0.156 7,-2z" fill="#44eb99"/>
  </g>
  <g id="svg_149">
   <path id="svg_150" d="m907.5,444.5c8.707,-0.463 12.207,3.537 10.5,12c-2.541,4.569 -6.375,6.069 -11.5,4.5c-5.547,-5.968 -5.213,-11.468 1,-16.5z" fill="#ff5d47"/>
  </g>
  <g id="svg_151">
   <path id="svg_152" d="m481.5,427.5c1.287,2.137 2.121,4.47 2.5,7c0.759,1.563 1.926,2.563 3.5,3c0,42.667 0,85.333 0,128c-0.333,0 -0.667,0 -1,0c-1.068,-0.934 -2.401,-1.268 -4,-1c0.332,-37.837 -0.002,-75.504 -1,-113c-1.18,-8.306 -1.18,-16.306 0,-24z" fill="#3c6dc3"/>
  </g>
  <g id="svg_153">
   <path id="svg_154" d="m703.5,423.5c1.838,3.481 3.504,7.147 5,11c0.457,0.798 1.124,1.131 2,1c-1.302,5.433 -1.302,10.766 0,16c-0.992,32.927 -1.326,65.927 -1,99c41,0 82,0 123,0c0,0.333 0,0.667 0,1c-43,0 -86,0 -129,0c0,-42.667 0,-85.333 0,-128z" fill="#d4a241"/>
  </g>
  <g id="svg_155">
   <path id="svg_156" d="m476.5,451.5c1.667,0 3.333,0 5,0c0.998,37.496 1.332,75.163 1,113c1.599,-0.268 2.932,0.066 4,1c-2.333,0 -4.667,0 -7,0c-1.109,-0.79 -2.442,-1.29 -4,-1.5c0.996,-37.427 1.33,-74.927 1,-112.5z" fill="#4380ea"/>
  </g>
  <g id="svg_157">
   <path id="svg_158" d="m838.5,563.5c-42,0 -84,0 -126,0c-3,0 -6,0 -9,0c-0.265,9.197 0.068,18.363 1,27.5c-0.104,2.794 -1.104,5.127 -3,7c3.491,0.738 6.825,1.571 10,2.5c-4.512,0.351 -8.845,-0.315 -13,-2c1.869,-3.44 3.035,-7.107 3.5,-11c0.5,-8.327 0.666,-16.66 0.5,-25c45.503,-0.332 90.836,0.001 136,1z" fill="#b3b3b4"/>
  </g>
  <g id="svg_159">
   <path id="svg_160" d="m712.5,563.5c42,0 84,0 126,0c0.166,7.674 0,15.341 -0.5,23c-1.458,2.46 -3.291,4.627 -5.5,6.5c-20.698,4.864 -41.698,7.364 -63,7.5c-16.003,0.167 -32.003,0 -48,-0.5c-3.053,-0.179 -6.053,-0.679 -9,-1.5c1,-3.333 2,-6.667 3,-10c-0.209,-0.586 -0.543,-1.086 -1,-1.5c0.348,-7.527 1.348,-14.86 3,-22c-1.882,-0.198 -3.548,-0.698 -5,-1.5z" fill="none"/>
  </g>
  <g id="svg_161">
   <path id="svg_162" d="m712.5,563.5c1.452,0.802 3.118,1.302 5,1.5c-1.652,7.14 -2.652,14.473 -3,22c0.457,0.414 0.791,0.914 1,1.5c-1,3.333 -2,6.667 -3,10c2.947,0.821 5.947,1.321 9,1.5c15.997,0.5 31.997,0.667 48,0.5c-19.175,1.217 -38.508,1.217 -58,0c-3.175,-0.929 -6.509,-1.762 -10,-2.5c1.896,-1.873 2.896,-4.206 3,-7c-0.932,-9.137 -1.265,-18.303 -1,-27.5c3,0 6,0 9,0z" fill="none"/>
  </g>
  <g id="svg_163">
   <path id="svg_164" d="m346.5,565.5c3.667,0 7.333,0 11,0c0.333,0 0.667,0 1,0c0,13.667 0,27.333 0,41c-0.996,-13.156 -1.329,-26.49 -1,-40c-3.871,0.315 -7.538,-0.018 -11,-1z" fill="#b1b4be"/>
  </g>
  <g id="svg_165">
   <path id="svg_166" d="m369.5,565.5c36.667,0 73.333,0 110,0c2.333,0 4.667,0 7,0c0.333,0 0.667,0 1,0c0,2.333 0,4.667 0,7c-39.333,0 -78.667,0 -118,0c0,-2.333 0,-4.667 0,-7z" fill="#b6baca"/>
  </g>
  <g id="svg_167">
   <path id="svg_168" d="m370.5,566.5c38.667,0 77.333,0 116,0c0,1.667 0,3.333 0,5c-38.667,0 -77.333,0 -116,0c0,-1.667 0,-3.333 0,-5z" fill="#fbfbfb"/>
  </g>
  <g id="svg_169">
   <path id="svg_170" d="m681.5,574.5c0,0.333 0,0.667 0,1c-60.667,0 -121.333,0 -182,0c0,4 0,8 0,12c-0.985,-4.134 -1.318,-8.468 -1,-13c61,0 122,0 183,0z" fill="#19ae62"/>
  </g>
  <g id="svg_171">
   <path id="svg_172" d="m682.5,574.5c3,0 6,0 9,0c1.401,17.383 -5.932,29.216 -22,35.5c-49.667,0.667 -99.333,0.667 -149,0c-9.822,-3.323 -16.489,-9.823 -20,-19.5c27.667,0 55.333,0 83,0c-0.284,1.915 0.049,3.581 1,5c3.817,7.022 9.484,8.855 17,5.5c1.939,-1.432 3.272,-3.265 4,-5.5c0.951,-1.419 1.284,-3.085 1,-5c25.333,0 50.667,0 76,0c0,-5.333 0,-10.667 0,-16z" fill="none"/>
  </g>
  <g id="svg_173">
   <path id="svg_174" d="m681.5,575.5c0,4.667 0,9.333 0,14c-25.333,0 -50.667,0 -76,0c-3.95,-8.253 -9.95,-10.086 -18,-5.5c-1.66,1.488 -2.66,3.321 -3,5.5c-28,0 -56,0 -84,0c-0.333,0 -0.667,0 -1,0c0,-0.667 0,-1.333 0,-2c0,-4 0,-8 0,-12c60.667,0 121.333,0 182,0z" fill="#24e281"/>
  </g>
  <g id="svg_175">
   <path id="svg_176" d="m605.5,589.5c0,1.667 0,3.333 0,5c-0.951,-1.419 -1.284,-3.085 -1,-5c-6.333,0 -12.667,0 -19,0c0.284,1.915 -0.049,3.581 -1,5c0,-1.667 0,-3.333 0,-5c0.34,-2.179 1.34,-4.012 3,-5.5c8.05,-4.586 14.05,-2.753 18,5.5z" fill="#011102"/>
  </g>
  <g id="svg_177">
   <path id="svg_178" d="m500.5,590.5c0,-0.333 0,-0.667 0,-1c28,0 56,0 84,0c0,1.667 0,3.333 0,5c0,0.333 0,0.667 0,1c-0.951,-1.419 -1.284,-3.085 -1,-5c-27.667,0 -55.333,0 -83,0z" fill="#d2f0db"/>
  </g>
  <g id="svg_179">
   <path id="svg_180" d="m681.5,574.5c0.333,0 0.667,0 1,0c0,5.333 0,10.667 0,16c-25.333,0 -50.667,0 -76,0c0.284,1.915 -0.049,3.581 -1,5c0,-0.333 0,-0.667 0,-1c0,-1.667 0,-3.333 0,-5c25.333,0 50.667,0 76,0c0,-4.667 0,-9.333 0,-14c0,-0.333 0,-0.667 0,-1z" fill="#cbefd6"/>
  </g>
  <g id="svg_181">
   <path id="svg_182" d="m605.5,594.5c0,0.333 0,0.667 0,1c-0.728,2.235 -2.061,4.068 -4,5.5c-7.516,3.355 -13.183,1.522 -17,-5.5c0,-0.333 0,-0.667 0,-1c0.951,-1.419 1.284,-3.085 1,-5c6.333,0 12.667,0 19,0c-0.284,1.915 0.049,3.581 1,5z" fill="#272a30"/>
  </g>
  <g id="svg_183">
   <path id="svg_184" d="m369.5,583.5c39.333,0 78.667,0 118,0c0.344,3.728 1.01,7.395 2,11c-39.994,1 -79.994,1.333 -120,1c0,-4 0,-8 0,-12z" fill="#d1d1d1"/>
  </g>
  <g fill-opacity="0" id="svg_185">
   <path id="svg_186" d="m370.5,584.5c37.668,-0.167 75.335,0 113,0.5c-0.638,3.071 -0.638,6.237 0,9.5c-37.667,0 -75.333,0 -113,0c0,-3.333 0,-6.667 0,-10z" fill="none"/>
  </g>
  <g id="svg_187">
   <path id="svg_188" d="m358.5,565.5c0.333,0 0.667,0 1,0c0,13.333 0,26.667 0,40c182.667,0.333 182.667,0.667 0,1c-0.333,0 -0.667,0 -1,0c0,-13.667 0,-27.333 0,-41z" fill="#000311"/>
  </g>
  <g id="svg_189">
   <path id="svg_190" d="m186.5,648.5c7.744,-0.452 10.077,2.715 7,9.5c-5.401,3.035 -8.401,1.535 -9,-4.5c-0.063,-2.014 0.603,-3.681 2,-5z" fill="#ffffff"/>
  </g>
  <g id="svg_191">
   <path id="svg_192" d="m226.5,648.5c7.008,-0.166 14.008,0 21,0.5c4.066,3.745 3.733,7.078 -1,10c-6.333,0.667 -12.667,0.667 -19,0c-3.565,-3.216 -3.898,-6.716 -1,-10.5z" fill="#ffffff"/>
  </g>
  <g id="svg_193">
   <path id="svg_194" d="m912.5,657.5c-0.973,0.487 -1.973,0.987 -3,1.5c-214.333,0.5 -428.666,0.667 -643,0.5c-2.376,-1.012 -3.376,-2.845 -3,-5.5c-0.146,-2.034 0.52,-3.701 2,-5c215,-0.667 430,-0.667 645,0c0.916,0.374 1.75,0.874 2.5,1.5c0.556,2.385 0.39,4.718 -0.5,7z" fill="#ffffff"/>
  </g>
  <g id="svg_195">
   <path id="svg_196" d="m928.5,648.5c11.671,-0.167 23.338,0 35,0.5c2.843,3.619 2.51,6.952 -1,10c-11.333,0.667 -22.667,0.667 -34,0c-2.632,-3.568 -2.632,-7.068 0,-10.5z" fill="#ffffff"/>
  </g>
  <g id="svg_197">
   <path id="svg_198" d="m991.5,648.5c4.467,-0.367 8.8,0.133 13,1.5c2.9,6.944 0.56,10.11 -7,9.5c-8.672,-0.35 -10.672,-4.017 -6,-11z" fill="#ffffff"/>
  </g>
  <g id="svg_199">
   <path id="svg_200" d="m912.5,657.5c-0.077,1.25 -0.744,2.083 -2,2.5c-214.834,0.833 -429.5,0.666 -644,-0.5c214.334,0.167 428.667,0 643,-0.5c1.027,-0.513 2.027,-1.013 3,-1.5z" fill="#d5d5d5"/>
  </g>
 </g>
</svg>