<?xml version="1.0" standalone="no"?>
<!DOCTYPE svg PUBLIC "-//W3C//DTD SVG 20010904//EN"
 "http://www.w3.org/TR/2001/REC-SVG-20010904/DTD/svg10.dtd">
<svg version="1.0" xmlns="http://www.w3.org/2000/svg"
 width="512.000000pt" height="512.000000pt" viewBox="0 0 512.000000 512.000000"
 preserveAspectRatio="xMidYMid meet">

<g transform="translate(0.000000,512.000000) scale(0.100000,-0.100000)"
fill="#000000" stroke="none">
<path d="M237 4696 c-110 -46 -182 -123 -217 -235 -20 -62 -20 -90 -20 -1900
0 -1649 2 -1843 16 -1892 33 -114 119 -207 229 -248 l56 -21 2259 0 c2247 0
2260 0 2314 20 111 42 190 125 226 239 20 62 20 90 20 1901 0 1811 0 1839 -20
1901 -36 114 -115 197 -226 239 -54 20 -67 20 -2317 20 l-2262 0 -58 -24z
m4634 -161 c27 -19 54 -50 71 -84 l28 -53 0 -254 0 -254 -1909 0 c-1850 0
-1909 -1 -1932 -19 -32 -26 -32 -86 0 -112 23 -18 82 -19 1932 -19 l1909 0 0
-1509 0 -1509 -28 -53 c-17 -34 -44 -65 -71 -84 l-43 -30 -2268 0 -2268 0 -43
30 c-27 19 -54 50 -71 84 l-28 53 0 1509 0 1509 349 0 c337 0 349 1 375 21 36
28 36 80 0 108 -26 20 -38 21 -375 21 l-349 0 0 250 c0 269 3 288 55 356 13
17 43 41 67 53 l43 21 2257 -2 2256 -3 43 -30z"/>
<path d="M630 4303 c-32 -12 -50 -37 -50 -70 0 -93 139 -99 142 -5 2 49 -50
90 -92 75z"/>
<path d="M973 4300 c-45 -18 -57 -81 -23 -118 30 -32 82 -30 109 4 12 15 21
33 21 40 0 26 -23 62 -47 73 -28 13 -30 13 -60 1z"/>
<path d="M1325 4298 c-49 -26 -58 -69 -24 -112 51 -65 153 0 123 79 -6 15 -54
45 -71 45 -4 0 -17 -6 -28 -12z"/>
<path d="M4073 4300 c-45 -18 -55 -72 -22 -114 l20 -26 254 0 254 0 20 26 c34
43 26 86 -20 109 -22 12 -75 15 -256 14 -125 0 -238 -4 -250 -9z"/>
<path d="M2325 3484 c-187 -33 -396 -119 -554 -227 -101 -70 -239 -203 -312
-301 l-60 -81 -302 -5 c-293 -5 -303 -6 -347 -29 -61 -32 -97 -67 -128 -126
l-27 -50 -3 -524 c-3 -591 -4 -582 71 -667 23 -26 63 -57 92 -70 49 -23 57
-24 345 -24 l295 -1 55 -76 c195 -271 522 -475 865 -539 131 -25 363 -25 490
-1 359 70 694 283 882 564 l35 52 317 3 316 3 46 27 c56 33 94 76 123 138 19
41 21 63 21 243 0 197 0 199 -24 218 -28 23 -68 24 -96 3 -18 -14 -20 -30 -25
-207 -4 -167 -7 -196 -24 -220 -41 -61 85 -57 -1814 -57 l-1739 0 -27 21 c-57
45 -56 35 -56 571 0 552 -1 545 70 581 33 16 134 17 1772 15 l1736 -3 27 -25
c48 -44 55 -75 55 -250 0 -147 2 -162 20 -180 30 -30 83 -27 110 7 21 27 22
36 18 208 -4 196 -10 222 -67 294 -16 20 -53 50 -83 67 l-53 29 -312 5 -312 5
-60 81 c-203 273 -535 474 -873 529 -116 19 -354 18 -463 -1z m155 -379 l0
-235 -215 0 c-140 0 -215 4 -215 10 0 18 71 152 113 215 56 83 151 174 222
212 101 55 95 68 95 -202z m253 203 c112 -59 221 -187 306 -355 17 -34 31 -67
31 -73 0 -6 -74 -10 -215 -10 l-215 0 0 235 c0 269 -6 256 93 203z m-650 -70
c-41 -45 -118 -174 -159 -268 l-42 -95 -152 -3 -152 -3 52 61 c101 117 226
214 368 287 93 48 115 54 85 21z m1057 -30 c135 -72 252 -164 350 -278 l52
-61 -152 3 -153 3 -33 78 c-39 90 -99 196 -150 262 -32 43 -33 46 -12 40 13
-4 57 -25 98 -47z m-1253 -1845 c24 -68 109 -232 156 -300 l56 -82 -56 25
c-127 56 -259 151 -371 269 -45 46 -82 89 -82 95 0 6 53 10 145 10 130 0 146
-2 152 -17z m593 -223 l0 -239 -42 15 c-91 32 -201 126 -275 234 -34 50 -113
204 -113 220 0 6 75 10 215 10 l215 0 0 -240z m590 230 c0 -16 -79 -170 -113
-220 -74 -108 -184 -202 -275 -234 l-42 -15 0 239 0 240 215 0 c140 0 215 -4
215 -10z m460 -2 c0 -7 -51 -62 -113 -123 -115 -111 -223 -188 -339 -239 l-57
-25 56 82 c47 68 132 232 156 300 6 15 22 17 152 17 106 0 145 -3 145 -12z"/>
<path d="M1165 2418 c-28 -15 -45 -38 -45 -62 0 -37 169 -511 187 -523 25 -19
77 -16 96 5 9 10 37 76 63 147 25 72 48 131 49 133 1 1 23 -57 49 -130 26 -73
54 -141 63 -150 19 -21 72 -24 96 -5 18 13 187 484 187 521 0 31 -28 64 -60
71 -47 11 -73 -23 -120 -157 -24 -68 -46 -126 -49 -130 -4 -4 -26 50 -50 120
-48 138 -70 172 -112 172 -45 0 -65 -29 -115 -168 -26 -73 -50 -130 -54 -125
-4 4 -26 65 -50 136 -36 110 -46 129 -70 142 -34 18 -39 18 -65 3z"/>
<path d="M2213 2420 c-12 -5 -29 -20 -39 -35 -16 -24 -15 -30 31 -168 85 -252
126 -361 142 -379 18 -20 64 -24 92 -8 12 6 37 60 67 145 26 74 51 135 54 135
3 0 25 -57 49 -127 46 -134 65 -163 111 -163 15 0 37 8 48 18 13 10 53 111
107 266 93 269 94 277 42 311 -28 18 -68 12 -89 -12 -7 -9 -34 -75 -60 -147
-40 -115 -47 -128 -55 -106 -5 14 -27 75 -48 135 -40 116 -60 145 -104 145
-42 0 -64 -34 -111 -165 -23 -66 -45 -124 -49 -128 -4 -4 -27 49 -51 118 -23
69 -50 134 -59 145 -20 23 -50 31 -78 20z"/>
<path d="M3250 2417 c-55 -27 -52 -48 40 -319 58 -170 91 -255 105 -264 27
-19 79 -17 97 4 8 9 34 71 58 137 23 66 46 126 50 134 5 9 25 -39 55 -128 31
-93 53 -145 65 -151 30 -16 76 -12 94 9 19 20 185 483 186 514 0 30 -17 53
-49 66 -24 10 -34 10 -58 -3 -26 -13 -36 -33 -78 -150 -26 -75 -49 -136 -50
-136 -2 0 -22 57 -46 128 -45 132 -71 172 -111 172 -47 0 -64 -26 -114 -165
-26 -74 -51 -132 -55 -128 -4 5 -26 63 -49 130 -23 67 -50 128 -59 136 -25 23
-54 28 -81 14z"/>
<path d="M1985 1940 c-26 -29 -24 -79 4 -102 70 -56 157 26 105 100 -20 29
-83 31 -109 2z"/>
<path d="M3036 1944 c-48 -47 -18 -119 49 -119 29 0 42 6 58 27 35 47 3 108
-58 108 -18 0 -41 -7 -49 -16z"/>
</g>
</svg>
